G04 #@! TF.GenerationSoftware,KiCad,Pcbnew,(5.1.8)-1*
G04 #@! TF.CreationDate,2022-06-16T21:47:05+09:00*
G04 #@! TF.ProjectId,SORDM5C,534f5244-4d35-4432-9e6b-696361645f70,rev?*
G04 #@! TF.SameCoordinates,PX48ab840PY791ddc0*
G04 #@! TF.FileFunction,Soldermask,Top*
G04 #@! TF.FilePolarity,Negative*
%FSLAX46Y46*%
G04 Gerber Fmt 4.6, Leading zero omitted, Abs format (unit mm)*
G04 Created by KiCad (PCBNEW (5.1.8)-1) date 2022-06-16 21:47:05*
%MOMM*%
%LPD*%
G01*
G04 APERTURE LIST*
%ADD10C,2.000000*%
%ADD11O,1.400000X1.400000*%
%ADD12C,1.400000*%
%ADD13C,4.300000*%
%ADD14C,1.600000*%
%ADD15O,1.600000X1.600000*%
%ADD16R,1.600000X1.600000*%
%ADD17C,1.450000*%
%ADD18R,1.450000X1.450000*%
%ADD19R,1.700000X1.700000*%
%ADD20O,1.700000X1.700000*%
%ADD21R,1.780000X7.620000*%
%ADD22C,0.800000*%
G04 APERTURE END LIST*
D10*
X76985000Y36195000D03*
X76985000Y31695000D03*
X70485000Y36195000D03*
X70485000Y31695000D03*
D11*
X82550000Y39370000D03*
D12*
X90170000Y39370000D03*
D11*
X82550000Y41910000D03*
D12*
X90170000Y41910000D03*
D11*
X82550000Y44450000D03*
D12*
X90170000Y44450000D03*
D11*
X82550000Y46990000D03*
D12*
X90170000Y46990000D03*
D13*
X3175000Y46990000D03*
X96520000Y46990000D03*
X3175000Y3810000D03*
D14*
X67310000Y32980000D03*
X67310000Y30480000D03*
D15*
X8890000Y17780000D03*
X16510000Y45720000D03*
X8890000Y20320000D03*
X16510000Y43180000D03*
X8890000Y22860000D03*
X16510000Y40640000D03*
X8890000Y25400000D03*
X16510000Y38100000D03*
X8890000Y27940000D03*
X16510000Y35560000D03*
X8890000Y30480000D03*
X16510000Y33020000D03*
X8890000Y33020000D03*
X16510000Y30480000D03*
X8890000Y35560000D03*
X16510000Y27940000D03*
X8890000Y38100000D03*
X16510000Y25400000D03*
X8890000Y40640000D03*
X16510000Y22860000D03*
X8890000Y43180000D03*
X16510000Y20320000D03*
X8890000Y45720000D03*
D16*
X16510000Y17780000D03*
X19050000Y17780000D03*
D15*
X11430000Y45720000D03*
X19050000Y20320000D03*
X11430000Y43180000D03*
X19050000Y22860000D03*
X11430000Y40640000D03*
X19050000Y25400000D03*
X11430000Y38100000D03*
X19050000Y27940000D03*
X11430000Y35560000D03*
X19050000Y30480000D03*
X11430000Y33020000D03*
X19050000Y33020000D03*
X11430000Y30480000D03*
X19050000Y35560000D03*
X11430000Y27940000D03*
X19050000Y38100000D03*
X11430000Y25400000D03*
X19050000Y40640000D03*
X11430000Y22860000D03*
X19050000Y43180000D03*
X11430000Y20320000D03*
X19050000Y45720000D03*
X11430000Y17780000D03*
X13970000Y17780000D03*
X21590000Y45720000D03*
X13970000Y20320000D03*
X21590000Y43180000D03*
X13970000Y22860000D03*
X21590000Y40640000D03*
X13970000Y25400000D03*
X21590000Y38100000D03*
X13970000Y27940000D03*
X21590000Y35560000D03*
X13970000Y30480000D03*
X21590000Y33020000D03*
X13970000Y33020000D03*
X21590000Y30480000D03*
X13970000Y35560000D03*
X21590000Y27940000D03*
X13970000Y38100000D03*
X21590000Y25400000D03*
X13970000Y40640000D03*
X21590000Y22860000D03*
X13970000Y43180000D03*
X21590000Y20320000D03*
X13970000Y45720000D03*
D16*
X21590000Y17780000D03*
D17*
X90170000Y27940000D03*
X90170000Y25400000D03*
X90170000Y22860000D03*
X90170000Y20320000D03*
X90170000Y17780000D03*
X90170000Y15240000D03*
X90170000Y12700000D03*
D18*
X90170000Y10160000D03*
X87630000Y10160000D03*
D17*
X87630000Y12700000D03*
X87630000Y15240000D03*
X87630000Y17780000D03*
X87630000Y20320000D03*
X87630000Y22860000D03*
X87630000Y25400000D03*
X87630000Y27940000D03*
D18*
X85090000Y10160000D03*
D17*
X85090000Y12700000D03*
X85090000Y15240000D03*
X85090000Y17780000D03*
X85090000Y20320000D03*
X85090000Y22860000D03*
X85090000Y25400000D03*
X85090000Y27940000D03*
X82550000Y27940000D03*
X82550000Y25400000D03*
X82550000Y22860000D03*
X82550000Y20320000D03*
X82550000Y17780000D03*
X82550000Y15240000D03*
X82550000Y12700000D03*
D18*
X82550000Y10160000D03*
D13*
X96520000Y3810000D03*
D19*
X82550000Y36830000D03*
D20*
X77470000Y3810000D03*
X74930000Y3810000D03*
X72390000Y3810000D03*
X69850000Y3810000D03*
X67310000Y3810000D03*
X64770000Y3810000D03*
X62230000Y3810000D03*
X59690000Y3810000D03*
X57150000Y3810000D03*
X54610000Y3810000D03*
X52070000Y3810000D03*
X49530000Y3810000D03*
X46990000Y3810000D03*
X44450000Y3810000D03*
X41910000Y3810000D03*
X39370000Y3810000D03*
X36830000Y3810000D03*
X34290000Y3810000D03*
X31750000Y3810000D03*
X29210000Y3810000D03*
X26670000Y3810000D03*
X24130000Y3810000D03*
X21590000Y3810000D03*
X19050000Y3810000D03*
X16510000Y3810000D03*
X13970000Y3810000D03*
X11430000Y3810000D03*
D19*
X8890000Y3810000D03*
D20*
X77470000Y1905000D03*
X74930000Y1905000D03*
X72390000Y1905000D03*
X69850000Y1905000D03*
X67310000Y1905000D03*
X64770000Y1905000D03*
X62230000Y1905000D03*
X59690000Y1905000D03*
X57150000Y1905000D03*
X54610000Y1905000D03*
X52070000Y1905000D03*
X49530000Y1905000D03*
X46990000Y1905000D03*
X44450000Y1905000D03*
X41910000Y1905000D03*
X39370000Y1905000D03*
X36830000Y1905000D03*
X34290000Y1905000D03*
X31750000Y1905000D03*
X29210000Y1905000D03*
X26670000Y1905000D03*
X24130000Y1905000D03*
X21590000Y1905000D03*
X19050000Y1905000D03*
X16510000Y1905000D03*
X13970000Y1905000D03*
X11430000Y1905000D03*
D19*
X8890000Y1905000D03*
D15*
X69850000Y46990000D03*
X77470000Y39370000D03*
X72390000Y46990000D03*
X74930000Y39370000D03*
X74930000Y46990000D03*
X72390000Y39370000D03*
X77470000Y46990000D03*
D16*
X69850000Y39370000D03*
D15*
X69850000Y12700000D03*
X77470000Y27940000D03*
X69850000Y15240000D03*
X77470000Y25400000D03*
X69850000Y17780000D03*
X77470000Y22860000D03*
X69850000Y20320000D03*
X77470000Y20320000D03*
X69850000Y22860000D03*
X77470000Y17780000D03*
X69850000Y25400000D03*
X77470000Y15240000D03*
X69850000Y27940000D03*
D16*
X77470000Y12700000D03*
D15*
X29210000Y12700000D03*
X44450000Y45720000D03*
X29210000Y15240000D03*
X44450000Y43180000D03*
X29210000Y17780000D03*
X44450000Y40640000D03*
X29210000Y20320000D03*
X44450000Y38100000D03*
X29210000Y22860000D03*
X44450000Y35560000D03*
X29210000Y25400000D03*
X44450000Y33020000D03*
X29210000Y27940000D03*
X44450000Y30480000D03*
X29210000Y30480000D03*
X44450000Y27940000D03*
X29210000Y33020000D03*
X44450000Y25400000D03*
X29210000Y35560000D03*
X44450000Y22860000D03*
X29210000Y38100000D03*
X44450000Y20320000D03*
X29210000Y40640000D03*
X44450000Y17780000D03*
X29210000Y43180000D03*
X44450000Y15240000D03*
X29210000Y45720000D03*
D16*
X44450000Y12700000D03*
D15*
X49530000Y12700000D03*
X64770000Y45720000D03*
X49530000Y15240000D03*
X64770000Y43180000D03*
X49530000Y17780000D03*
X64770000Y40640000D03*
X49530000Y20320000D03*
X64770000Y38100000D03*
X49530000Y22860000D03*
X64770000Y35560000D03*
X49530000Y25400000D03*
X64770000Y33020000D03*
X49530000Y27940000D03*
X64770000Y30480000D03*
X49530000Y30480000D03*
X64770000Y27940000D03*
X49530000Y33020000D03*
X64770000Y25400000D03*
X49530000Y35560000D03*
X64770000Y22860000D03*
X49530000Y38100000D03*
X64770000Y20320000D03*
X49530000Y40640000D03*
X64770000Y17780000D03*
X49530000Y43180000D03*
X64770000Y15240000D03*
X49530000Y45720000D03*
D16*
X64770000Y12700000D03*
D21*
X8382000Y-7366000D03*
X10922000Y-7366000D03*
X13462000Y-7366000D03*
X16002000Y-7366000D03*
X18542000Y-7366000D03*
X21082000Y-7366000D03*
X23622000Y-7366000D03*
X26162000Y-7366000D03*
X28702000Y-7366000D03*
X31242000Y-7366000D03*
X33782000Y-7366000D03*
X36322000Y-7366000D03*
X38862000Y-7366000D03*
X41402000Y-7366000D03*
X43942000Y-7366000D03*
X46482000Y-7366000D03*
X49022000Y-7366000D03*
X51562000Y-7366000D03*
X54102000Y-7366000D03*
X56642000Y-7366000D03*
X59182000Y-7366000D03*
X61722000Y-7366000D03*
X64262000Y-7366000D03*
X66802000Y-7366000D03*
X69342000Y-7366000D03*
X71882000Y-7366000D03*
X74422000Y-7366000D03*
X76962000Y-7366000D03*
D14*
X49530000Y7620000D03*
X49530000Y10120000D03*
X29210000Y7660000D03*
X29210000Y10160000D03*
X19050000Y12660000D03*
D16*
X19050000Y10160000D03*
D22*
X58420000Y43180000D03*
X58420000Y40640000D03*
X58420000Y38100000D03*
X58420000Y25400000D03*
X58420000Y22860000D03*
X58420000Y20320000D03*
X58420000Y13335000D03*
X58420000Y35560000D03*
X32385000Y40640000D03*
X32385000Y43180000D03*
X38100000Y20320000D03*
X37465000Y22860000D03*
X37465000Y25400000D03*
X37465000Y27940000D03*
X37465000Y30480000D03*
X37465000Y33020000D03*
X37465000Y35560000D03*
X24130000Y16510000D03*
X46990000Y16510000D03*
X52070000Y25400000D03*
X52070000Y22860000D03*
X52070000Y20320000D03*
X44450000Y8890000D03*
X58420000Y8255000D03*
X58420000Y29845000D03*
X32385000Y36830000D03*
X34290000Y34290000D03*
X36830000Y19050000D03*
X39370000Y21590000D03*
X41910000Y29210000D03*
X46355000Y24130000D03*
X46990000Y15240000D03*
X26035000Y6350000D03*
X26035000Y17780000D03*
X68580000Y9525000D03*
X52069996Y13970000D03*
X68580000Y7620000D03*
X62865000Y11430000D03*
X38100000Y17780000D03*
X40640000Y20320000D03*
X51435000Y30479994D03*
X53340000Y34290000D03*
X55880000Y36830000D03*
X67310000Y26670000D03*
X72390000Y17780000D03*
X60960000Y15240000D03*
X60960000Y38100000D03*
X74785001Y13825001D03*
X46990000Y31750000D03*
X52070000Y31750000D03*
X62865000Y31750000D03*
M02*
