G04 #@! TF.GenerationSoftware,KiCad,Pcbnew,(5.1.8)-1*
G04 #@! TF.CreationDate,2022-06-16T21:47:05+09:00*
G04 #@! TF.ProjectId,SORDM5C,534f5244-4d35-4432-9e6b-696361645f70,rev?*
G04 #@! TF.SameCoordinates,PX48ab840PY791ddc0*
G04 #@! TF.FileFunction,Profile,NP*
%FSLAX46Y46*%
G04 Gerber Fmt 4.6, Leading zero omitted, Abs format (unit mm)*
G04 Created by KiCad (PCBNEW (5.1.8)-1) date 2022-06-16 21:47:05*
%MOMM*%
%LPD*%
G01*
G04 APERTURE LIST*
G04 #@! TA.AperFunction,Profile*
%ADD10C,0.050000*%
G04 #@! TD*
G04 APERTURE END LIST*
D10*
X78105000Y-12065000D02*
X6985000Y-12065000D01*
X97790000Y0D02*
X78740000Y0D01*
X98425000Y50165000D02*
X1270000Y50165000D01*
X99695000Y33020000D02*
X99695000Y48895000D01*
X0Y48895000D02*
X0Y33020000D01*
X0Y48895000D02*
X1270000Y50165000D01*
X99695000Y48895000D02*
X98425000Y50165000D01*
X0Y27940000D02*
X0Y1905000D01*
X6350000Y0D02*
X1905000Y0D01*
X1905000Y0D02*
X0Y1905000D01*
X99695000Y27940000D02*
X99695000Y1905000D01*
X97790000Y0D02*
X99695000Y1905000D01*
X78740000Y-11430000D02*
X78740000Y0D01*
X78105000Y-12065000D02*
X78740000Y-11430000D01*
X6350000Y-11430000D02*
X6985000Y-12065000D01*
X6350000Y0D02*
X6350000Y-11430000D01*
X97790000Y27940000D02*
X99695000Y27940000D01*
X97790000Y33020000D02*
X97790000Y27940000D01*
X99695000Y33020000D02*
X97790000Y33020000D01*
X1905000Y27940000D02*
X0Y27940000D01*
X1905000Y33020000D02*
X1905000Y27940000D01*
X0Y33020000D02*
X1905000Y33020000D01*
X1666666Y0D02*
G75*
G03*
X1666666Y0I-1666666J0D01*
G01*
X-2500000Y0D02*
X2500000Y0D01*
X0Y2500000D02*
X0Y-2500000D01*
M02*
