M48
; DRILL file {KiCad (5.1.8)-1} date 06/16/22 21:47:08
; FORMAT={3:3/ absolute / metric / suppress leading zeros}
; #@! TF.CreationDate,2022-06-16T21:47:08+09:00
; #@! TF.GenerationSoftware,Kicad,Pcbnew,(5.1.8)-1
FMAT,2
METRIC,TZ
T1C0.400
T2C0.700
T3C0.800
T4C0.850
T5C1.000
T6C1.100
T7C4.300
%
G90
G05
T1
X24130Y16510
X26035Y17780
X26035Y6350
X32385Y43180
X32385Y40640
X32385Y36830
X34290Y34290
X36830Y19050
X37465Y35560
X37465Y33020
X37465Y30480
X37465Y27940
X37465Y25400
X37465Y22860
X38100Y20320
X38100Y17780
X39370Y21590
X40640Y20320
X41910Y29210
X44450Y8890
X46355Y24130
X46990Y31750
X46990Y16510
X46990Y15240
X51435Y30480
X52070Y13970
X52070Y31750
X52070Y25400
X52070Y22860
X52070Y20320
X53340Y34290
X55880Y36830
X58420Y43180
X58420Y40640
X58420Y38100
X58420Y35560
X58420Y29845
X58420Y25400
X58420Y22860
X58420Y20320
X58420Y13335
X58420Y8255
X60960Y38100
X60960Y15240
X62865Y31750
X62865Y11430
X67310Y26670
X68580Y9525
X68580Y7620
X72390Y17780
X74785Y13825
T2
X82550Y41910
X90170Y41910
X82550Y46990
X90170Y46990
X82550Y39370
X90170Y39370
X82550Y44450
X90170Y44450
T3
X49530Y10120
X49530Y7620
X49530Y45720
X49530Y43180
X49530Y40640
X49530Y38100
X49530Y35560
X49530Y33020
X49530Y30480
X49530Y27940
X49530Y25400
X49530Y22860
X49530Y20320
X49530Y17780
X49530Y15240
X49530Y12700
X64770Y45720
X64770Y43180
X64770Y40640
X64770Y38100
X64770Y35560
X64770Y33020
X64770Y30480
X64770Y27940
X64770Y25400
X64770Y22860
X64770Y20320
X64770Y17780
X64770Y15240
X64770Y12700
X19050Y12660
X19050Y10160
X69850Y27940
X69850Y25400
X69850Y22860
X69850Y20320
X69850Y17780
X69850Y15240
X69850Y12700
X77470Y27940
X77470Y25400
X77470Y22860
X77470Y20320
X77470Y17780
X77470Y15240
X77470Y12700
X13970Y45720
X13970Y43180
X13970Y40640
X13970Y38100
X13970Y35560
X13970Y33020
X13970Y30480
X13970Y27940
X13970Y25400
X13970Y22860
X13970Y20320
X13970Y17780
X21590Y45720
X21590Y43180
X21590Y40640
X21590Y38100
X21590Y35560
X21590Y33020
X21590Y30480
X21590Y27940
X21590Y25400
X21590Y22860
X21590Y20320
X21590Y17780
X29210Y45720
X29210Y43180
X29210Y40640
X29210Y38100
X29210Y35560
X29210Y33020
X29210Y30480
X29210Y27940
X29210Y25400
X29210Y22860
X29210Y20320
X29210Y17780
X29210Y15240
X29210Y12700
X44450Y45720
X44450Y43180
X44450Y40640
X44450Y38100
X44450Y35560
X44450Y33020
X44450Y30480
X44450Y27940
X44450Y25400
X44450Y22860
X44450Y20320
X44450Y17780
X44450Y15240
X44450Y12700
X69850Y46990
X69850Y39370
X72390Y46990
X72390Y39370
X74930Y46990
X74930Y39370
X77470Y46990
X77470Y39370
X11430Y45720
X11430Y43180
X11430Y40640
X11430Y38100
X11430Y35560
X11430Y33020
X11430Y30480
X11430Y27940
X11430Y25400
X11430Y22860
X11430Y20320
X11430Y17780
X19050Y45720
X19050Y43180
X19050Y40640
X19050Y38100
X19050Y35560
X19050Y33020
X19050Y30480
X19050Y27940
X19050Y25400
X19050Y22860
X19050Y20320
X19050Y17780
X67310Y32980
X67310Y30480
X8890Y45720
X8890Y43180
X8890Y40640
X8890Y38100
X8890Y35560
X8890Y33020
X8890Y30480
X8890Y27940
X8890Y25400
X8890Y22860
X8890Y20320
X8890Y17780
X16510Y45720
X16510Y43180
X16510Y40640
X16510Y38100
X16510Y35560
X16510Y33020
X16510Y30480
X16510Y27940
X16510Y25400
X16510Y22860
X16510Y20320
X16510Y17780
X29210Y10160
X29210Y7660
T4
X87630Y27940
X87630Y25400
X87630Y22860
X87630Y20320
X87630Y17780
X87630Y15240
X87630Y12700
X87630Y10160
X85090Y27940
X85090Y25400
X85090Y22860
X85090Y20320
X85090Y17780
X85090Y15240
X85090Y12700
X85090Y10160
X82550Y27940
X82550Y25400
X82550Y22860
X82550Y20320
X82550Y17780
X82550Y15240
X82550Y12700
X82550Y10160
X90170Y27940
X90170Y25400
X90170Y22860
X90170Y20320
X90170Y17780
X90170Y15240
X90170Y12700
X90170Y10160
T5
X82550Y36830
X8890Y1905
X11430Y1905
X13970Y1905
X16510Y1905
X19050Y1905
X21590Y1905
X24130Y1905
X26670Y1905
X29210Y1905
X31750Y1905
X34290Y1905
X36830Y1905
X39370Y1905
X41910Y1905
X44450Y1905
X46990Y1905
X49530Y1905
X52070Y1905
X54610Y1905
X57150Y1905
X59690Y1905
X62230Y1905
X64770Y1905
X67310Y1905
X69850Y1905
X72390Y1905
X74930Y1905
X77470Y1905
X8890Y3810
X11430Y3810
X13970Y3810
X16510Y3810
X19050Y3810
X21590Y3810
X24130Y3810
X26670Y3810
X29210Y3810
X31750Y3810
X34290Y3810
X36830Y3810
X39370Y3810
X41910Y3810
X44450Y3810
X46990Y3810
X49530Y3810
X52070Y3810
X54610Y3810
X57150Y3810
X59690Y3810
X62230Y3810
X64770Y3810
X67310Y3810
X69850Y3810
X72390Y3810
X74930Y3810
X77470Y3810
T6
X70485Y36195
X70485Y31695
X76985Y36195
X76985Y31695
T7
X96520Y3810
X96520Y46990
X3175Y46990
X3175Y3810
T0
M30
